<mxfile host="app.diagrams.net" modified="2022-05-23T12:42:45.230Z" agent="5.0 (Windows)" etag="V1SEEM0UYpL8CA8w_aKp" version="17.4.2" type="github">
  <diagram name="Page-1" id="b98fa263-6416-c6ec-5b7d-78bf54ef71d0">
    <mxGraphModel dx="1422" dy="780" grid="1" gridSize="10" guides="1" tooltips="1" connect="1" arrows="1" fold="1" page="1" pageScale="1.5" pageWidth="1169" pageHeight="826" background="none" math="0" shadow="0">
      <root>
        <mxCell id="0" style=";html=1;" />
        <mxCell id="1" style=";html=1;" parent="0" />
        <mxCell id="303ed1de8c2c98b4-4" value="Mindmap" style="whiteSpace=wrap;html=1;rounded=1;shadow=1;strokeWidth=1;fontSize=16;align=center;fillColor=#f5f5f5;strokeColor=#666666;" parent="1" vertex="1">
          <mxGeometry x="490" y="210" width="280" height="40" as="geometry" />
        </mxCell>
        <mxCell id="nNk0IeK4gZlXt1T17m2O-13" style="edgeStyle=orthogonalEdgeStyle;rounded=0;orthogonalLoop=1;jettySize=auto;html=1;entryX=0.444;entryY=0.975;entryDx=0;entryDy=0;entryPerimeter=0;endArrow=classic;endFill=1;strokeWidth=3;" parent="1" source="303ed1de8c2c98b4-5" target="303ed1de8c2c98b4-9" edge="1">
          <mxGeometry relative="1" as="geometry">
            <Array as="points">
              <mxPoint x="578" y="570" />
              <mxPoint x="1522" y="570" />
            </Array>
          </mxGeometry>
        </mxCell>
        <mxCell id="303ed1de8c2c98b4-5" value="Textquelle" style="whiteSpace=wrap;html=1;rounded=1;shadow=1;strokeWidth=1;fontSize=16;align=center;fillColor=#f5f5f5;strokeColor=#666666;" parent="1" vertex="1">
          <mxGeometry x="440" y="470" width="275" height="40" as="geometry" />
        </mxCell>
        <mxCell id="nNk0IeK4gZlXt1T17m2O-14" style="edgeStyle=orthogonalEdgeStyle;rounded=0;orthogonalLoop=1;jettySize=auto;html=1;entryX=0.356;entryY=1;entryDx=0;entryDy=0;entryPerimeter=0;endArrow=classic;endFill=1;strokeWidth=3;" parent="1" source="303ed1de8c2c98b4-6" target="303ed1de8c2c98b4-9" edge="1">
          <mxGeometry relative="1" as="geometry">
            <Array as="points">
              <mxPoint x="885" y="550" />
              <mxPoint x="1498" y="550" />
            </Array>
          </mxGeometry>
        </mxCell>
        <mxCell id="303ed1de8c2c98b4-6" value="Notiz" style="whiteSpace=wrap;html=1;rounded=1;shadow=1;strokeWidth=1;fontSize=16;align=center;fillColor=#f5f5f5;strokeColor=#666666;" parent="1" vertex="1">
          <mxGeometry x="747.5" y="470" width="275" height="40" as="geometry" />
        </mxCell>
        <mxCell id="nNk0IeK4gZlXt1T17m2O-12" style="edgeStyle=orthogonalEdgeStyle;rounded=0;orthogonalLoop=1;jettySize=auto;html=1;entryX=0.5;entryY=1;entryDx=0;entryDy=0;endArrow=classic;endFill=1;strokeWidth=3;" parent="1" source="303ed1de8c2c98b4-7" target="303ed1de8c2c98b4-9" edge="1">
          <mxGeometry relative="1" as="geometry">
            <Array as="points">
              <mxPoint x="268" y="590" />
              <mxPoint x="1538" y="590" />
            </Array>
          </mxGeometry>
        </mxCell>
        <mxCell id="303ed1de8c2c98b4-7" value="Bildquelle" style="whiteSpace=wrap;html=1;rounded=1;shadow=1;strokeWidth=1;fontSize=16;align=center;fillColor=#f5f5f5;strokeColor=#666666;" parent="1" vertex="1">
          <mxGeometry x="140" y="470" width="275" height="40" as="geometry" />
        </mxCell>
        <mxCell id="nNk0IeK4gZlXt1T17m2O-16" style="edgeStyle=orthogonalEdgeStyle;rounded=0;orthogonalLoop=1;jettySize=auto;html=1;entryX=0.75;entryY=0;entryDx=0;entryDy=0;endArrow=classic;endFill=1;strokeWidth=3;" parent="1" source="303ed1de8c2c98b4-8" target="303ed1de8c2c98b4-7" edge="1">
          <mxGeometry relative="1" as="geometry">
            <Array as="points">
              <mxPoint x="1218" y="410" />
              <mxPoint x="346" y="410" />
            </Array>
          </mxGeometry>
        </mxCell>
        <mxCell id="nNk0IeK4gZlXt1T17m2O-18" style="edgeStyle=orthogonalEdgeStyle;rounded=0;orthogonalLoop=1;jettySize=auto;html=1;entryX=0.72;entryY=0;entryDx=0;entryDy=0;endArrow=classic;endFill=1;strokeWidth=3;entryPerimeter=0;" parent="1" source="303ed1de8c2c98b4-8" target="303ed1de8c2c98b4-5" edge="1">
          <mxGeometry relative="1" as="geometry">
            <Array as="points">
              <mxPoint x="1170" y="420" />
              <mxPoint x="638" y="420" />
            </Array>
          </mxGeometry>
        </mxCell>
        <mxCell id="nNk0IeK4gZlXt1T17m2O-19" style="edgeStyle=orthogonalEdgeStyle;rounded=0;orthogonalLoop=1;jettySize=auto;html=1;entryX=0.635;entryY=0.025;entryDx=0;entryDy=0;endArrow=classic;endFill=1;strokeWidth=3;entryPerimeter=0;" parent="1" source="303ed1de8c2c98b4-8" target="303ed1de8c2c98b4-6" edge="1">
          <mxGeometry relative="1" as="geometry">
            <Array as="points">
              <mxPoint x="922" y="450" />
            </Array>
          </mxGeometry>
        </mxCell>
        <mxCell id="303ed1de8c2c98b4-8" value="Themenbereich" style="whiteSpace=wrap;html=1;rounded=1;shadow=1;strokeWidth=1;fontSize=16;align=center;fillColor=#f5f5f5;strokeColor=#666666;" parent="1" vertex="1">
          <mxGeometry x="1080" y="430" width="275" height="40" as="geometry" />
        </mxCell>
        <mxCell id="303ed1de8c2c98b4-9" value="Ordner" style="whiteSpace=wrap;html=1;rounded=1;shadow=1;strokeWidth=1;fontSize=16;align=center;fillColor=#f5f5f5;strokeColor=#666666;" parent="1" vertex="1">
          <mxGeometry x="1400" y="460" width="275" height="40" as="geometry" />
        </mxCell>
        <mxCell id="303ed1de8c2c98b4-80" style="edgeStyle=orthogonalEdgeStyle;html=1;startSize=6;endFill=0;endSize=6;strokeWidth=1;fontSize=16;rounded=0;endArrow=none;" parent="1" source="303ed1de8c2c98b4-4" target="303ed1de8c2c98b4-5" edge="1">
          <mxGeometry relative="1" as="geometry">
            <Array as="points">
              <mxPoint x="630" y="390" />
              <mxPoint x="578" y="390" />
            </Array>
          </mxGeometry>
        </mxCell>
        <mxCell id="303ed1de8c2c98b4-81" style="edgeStyle=elbowEdgeStyle;html=1;startSize=6;endFill=0;endSize=6;strokeWidth=1;fontSize=16;rounded=0;endArrow=none;" parent="1" source="303ed1de8c2c98b4-4" target="303ed1de8c2c98b4-6" edge="1">
          <mxGeometry relative="1" as="geometry">
            <Array as="points">
              <mxPoint x="880" y="260" />
            </Array>
          </mxGeometry>
        </mxCell>
        <mxCell id="303ed1de8c2c98b4-82" style="edgeStyle=orthogonalEdgeStyle;html=1;startSize=6;endFill=0;endSize=6;strokeWidth=1;fontSize=16;rounded=0;endArrow=none;exitX=0.5;exitY=1;" parent="1" source="303ed1de8c2c98b4-4" target="303ed1de8c2c98b4-7" edge="1">
          <mxGeometry relative="1" as="geometry">
            <Array as="points">
              <mxPoint x="630" y="390" />
              <mxPoint x="260" y="390" />
            </Array>
          </mxGeometry>
        </mxCell>
        <mxCell id="303ed1de8c2c98b4-83" style="edgeStyle=orthogonalEdgeStyle;html=1;startSize=6;endFill=0;endSize=6;strokeWidth=1;fontSize=16;rounded=0;endArrow=none;" parent="1" source="303ed1de8c2c98b4-4" target="303ed1de8c2c98b4-8" edge="1">
          <mxGeometry relative="1" as="geometry">
            <Array as="points">
              <mxPoint x="630" y="390" />
              <mxPoint x="1195" y="390" />
            </Array>
          </mxGeometry>
        </mxCell>
        <mxCell id="303ed1de8c2c98b4-84" style="edgeStyle=orthogonalEdgeStyle;html=1;startSize=6;endFill=0;endSize=6;strokeWidth=1;fontSize=16;rounded=0;endArrow=none;" parent="1" source="303ed1de8c2c98b4-4" target="303ed1de8c2c98b4-9" edge="1">
          <mxGeometry relative="1" as="geometry">
            <Array as="points">
              <mxPoint x="630" y="390" />
              <mxPoint x="1494" y="390" />
            </Array>
          </mxGeometry>
        </mxCell>
        <mxCell id="nNk0IeK4gZlXt1T17m2O-11" style="edgeStyle=orthogonalEdgeStyle;rounded=0;orthogonalLoop=1;jettySize=auto;html=1;endArrow=none;endFill=0;" parent="1" source="nNk0IeK4gZlXt1T17m2O-10" target="303ed1de8c2c98b4-4" edge="1">
          <mxGeometry relative="1" as="geometry" />
        </mxCell>
        <mxCell id="nNk0IeK4gZlXt1T17m2O-20" style="edgeStyle=orthogonalEdgeStyle;rounded=0;orthogonalLoop=1;jettySize=auto;html=1;endArrow=none;endFill=0;strokeWidth=1;" parent="1" source="nNk0IeK4gZlXt1T17m2O-10" target="303ed1de8c2c98b4-9" edge="1">
          <mxGeometry relative="1" as="geometry" />
        </mxCell>
        <mxCell id="nNk0IeK4gZlXt1T17m2O-10" value="Projekt" style="whiteSpace=wrap;html=1;rounded=1;shadow=1;strokeWidth=1;fontSize=16;align=center;fillColor=#f5f5f5;strokeColor=#666666;" parent="1" vertex="1">
          <mxGeometry x="540" y="80" width="510" height="40" as="geometry" />
        </mxCell>
        <mxCell id="hDya9lGbJzghbTWad6su-1" value="Organisieren" style="whiteSpace=wrap;html=1;rounded=1;shadow=1;strokeWidth=1;fontSize=16;align=center;fillColor=#f5f5f5;strokeColor=#666666;" vertex="1" parent="1">
          <mxGeometry x="1220" y="210" width="240" height="40" as="geometry" />
        </mxCell>
        <mxCell id="hDya9lGbJzghbTWad6su-2" value="Recherche" style="whiteSpace=wrap;html=1;rounded=1;shadow=1;strokeWidth=1;fontSize=16;align=center;fillColor=#f5f5f5;strokeColor=#666666;" vertex="1" parent="1">
          <mxGeometry x="940" y="210" width="240" height="40" as="geometry" />
        </mxCell>
      </root>
    </mxGraphModel>
  </diagram>
</mxfile>
